<svg xmlns="http://www.w3.org/2000/svg" xmlns:xlink="http://www.w3.org/1999/xlink" viewBox="0 0 326.92 173.2"><defs><style>.cls-1,.cls-2,.cls-3{fill:#fff;}.cls-1{clip-rule:evenodd;}.cls-3{fill-rule:evenodd;}.cls-4{clip-path:url(#clip-path);}.cls-5{clip-path:url(#clip-path-2);}</style><clipPath id="clip-path" transform="translate(40.73 34.86)"><path class="cls-1" d="M62.21,47.91,47.6,41l9.56,14.34L55,76.12l-1.12,0L52.55,54.83,42.08,39l-9-4.43,4.81-5.78L42.46,32l7.44-.74L51,26.17,33.83,18.82,22.53,36.19,39,60.78,34.21,96,48.61,113,62,96.67l-.11-34.2,5.51-6.15,1-5.61ZM76,27.72,65.11,42.59,70.94,45l9.2-11.74ZM61.48,41.6l12-16.86L68,19.34,55.33,39.26ZM54.89,24.16,52.67,34.37l-7.48.78,6.84,3L65.29,17l-7.82-3.63L52,22.91Zm-4.84-4.77L54,12.27,46.37,9.58l-4.92,8.84,7.34,3.13ZM92.91,44.22c0,24.43-44.22,72.63-44.22,72.63S4.46,68.65,4.46,44.22a44.23,44.23,0,0,1,88.45,0Z"/></clipPath><clipPath id="clip-path-2" transform="translate(40.73 34.86)"><rect class="cls-2" x="-40.73" y="-34.86" width="171.09" height="164.63"/></clipPath></defs><g id="Layer_2" data-name="Layer 2"><g id="location"><path class="cls-2" d="M115.7,11h8.57l2.6,10.39.88,4.12h.2l.88-4.12L131.43,11H140V42.86h-7v-7.5c0-3.78.69-12.45,1.08-16.18H134l-2.7,9.46-1.67,5.79h-3.72l-1.77-5.79-2.45-9.46h-.19c.39,3.73,1.08,12.4,1.08,16.18v7.5H115.7Z" transform="translate(40.73 34.86)"/><path class="cls-2" d="M152.16,11h10.19L172,42.86H163l-3.58-15.49c-.69-3-1.62-6.86-2.3-10.1H157c-.69,3.24-1.52,7.06-2.2,10.1l-3.58,15.49h-8.63Zm-2.7,18.57H165v6.52H149.46Z" transform="translate(40.73 34.86)"/><path class="cls-2" d="M175.1,11h12c6.86,0,12.75,2.55,12.75,10.59,0,7.79-6.08,11.17-12.75,11.17h-3.53v10.1H175.1Zm11.56,15.09c3.33,0,4.9-1.66,4.9-4.5s-1.76-3.93-4.9-3.93h-3.14v8.43Z" transform="translate(40.73 34.86)"/><path class="cls-2" d="M115.7,57.64h21.8V64.7H124.12v6.08h11.47v7.06H124.12V89.5H115.7Z" transform="translate(40.73 34.86)"/><path class="cls-2" d="M142.16,73.43c0-10.79,5.29-16.37,13-16.37s13,5.58,13,16.37c0,11.07-5.29,16.66-13,16.66S142.16,84.5,142.16,73.43Zm17.45,0c0-6.08-1.67-9.12-4.41-9.12s-4.41,3-4.41,9.12c0,6.37,1.66,9.41,4.41,9.41S159.61,79.8,159.61,73.43Z" transform="translate(40.73 34.86)"/><path class="cls-2" d="M172.74,57.64H184.6c6.86,0,12.75,2.36,12.75,10.3,0,7.69-5.89,10.88-12.75,10.88h-3.43V89.5h-8.43ZM184,72.15c3.33,0,5.09-1.47,5.09-4.21s-1.76-3.63-5.09-3.63h-2.85v7.84ZM188.77,71,199.11,89.5H189.7l-6.62-12.89Z" transform="translate(40.73 34.86)"/><path class="cls-2" d="M122.3,105.56h10.19l9.61,31.85h-8.92l-3.58-15.48c-.68-3-1.61-6.87-2.3-10.1h-.2c-.68,3.23-1.52,7.06-2.2,10.1l-3.58,15.48H112.7Zm-2.69,18.57h15.48v6.52H119.61Z" transform="translate(40.73 34.86)"/><path class="cls-2" d="M144.55,121.73c0-10.68,7-16.76,15.59-16.76a14.41,14.41,0,0,1,9.8,4.11l-4.61,5.2a7.53,7.53,0,0,0-5.19-2.06c-3.92,0-7,3.43-7,9.21,0,6,3,9.32,7.35,9.32a7.17,7.17,0,0,0,5.19-2.55l4.61,5.1a13.5,13.5,0,0,1-10.68,4.7C151.71,138,144.55,132.61,144.55,121.73Z" transform="translate(40.73 34.86)"/><path class="cls-2" d="M182,112.61h-9.17v-7h26.76v7h-9.17v24.8H182Z" transform="translate(40.73 34.86)"/><path class="cls-2" d="M204.15,130.35h7.25V112.61h-7.25v-7h22.94v7h-7.26v17.74h7.26v7.06H204.15Z" transform="translate(40.73 34.86)"/><path class="cls-2" d="M232,121.34c0-10.78,5.29-16.37,13-16.37s13,5.59,13,16.37c0,11.07-5.29,16.66-13,16.66S232,132.41,232,121.34Zm17.44,0c0-6.08-1.66-9.12-4.41-9.12s-4.41,3-4.41,9.12c0,6.37,1.67,9.41,4.41,9.41S249.43,127.71,249.43,121.34Z" transform="translate(40.73 34.86)"/><path class="cls-2" d="M262.67,105.56h8.52l5.35,14.21,2.59,7.15h.2a114,114,0,0,1-1.18-12.15v-9.21h8v31.85h-8.53l-5.34-14.26-2.6-7.11h-.19a119.63,119.63,0,0,1,1.17,12.16v9.21h-8Z" transform="translate(40.73 34.86)"/><polygon class="cls-2" points="130.72 162.53 116.09 162.53 122.08 173.2 137.39 173.2 130.72 162.53"/><polygon class="cls-2" points="114.09 158.98 128.5 158.98 121.84 148.32 108.09 148.32 114.09 158.98"/><path class="cls-2" d="M55.77,113.45l-.48.52-.63.71-.58.63-.68.74-.43.46-.66.71-.34.36-.6.63-.23.24-.52.54-.14.15-.89.91a1.77,1.77,0,0,1-2.51,0h0l-.34-.35-.14-.14-.37-.39-.17-.18-.52-.54-.23-.24-.6-.63-.35-.36-.63-.68-.47-.5-.64-.69-.62-.67-.6-.67-.5-.53H31.65l-5.33,10.66h43l-6-10.66Z" transform="translate(40.73 34.86)"/><path class="cls-2" d="M24.55,127.67l-1.78,3.55h14.9v3.56H21l-1.77,3.55H77.28l-6-10.66Zm20.22,7.11H41.22v-3.56h3.55Z" transform="translate(40.73 34.86)"/><polygon class="cls-2" points="68.41 148.32 56.28 148.32 49.62 158.98 63.08 158.98 68.41 148.32"/><polygon class="cls-2" points="47.39 162.53 40.73 173.2 55.97 173.2 61.3 162.53 47.39 162.53"/><path class="cls-3" d="M62.21,47.91,47.6,41l9.56,14.34L55,76.12l-1.12,0L52.55,54.83,42.08,39l-9-4.43,4.81-5.78L42.46,32l7.44-.74L51,26.17,33.83,18.82,22.53,36.19,39,60.78,34.21,96,48.61,113,62,96.67l-.11-34.2,5.51-6.15,1-5.61ZM76,27.72,65.11,42.59,70.94,45l9.2-11.74ZM61.48,41.6l12-16.86L68,19.34,55.33,39.26ZM54.89,24.16,52.67,34.37l-7.48.78,6.84,3L65.29,17l-7.82-3.63L52,22.91Zm-4.84-4.77L54,12.27,46.37,9.58l-4.92,8.84,7.34,3.13ZM92.91,44.22c0,24.43-44.22,72.63-44.22,72.63S4.46,68.65,4.46,44.22a44.23,44.23,0,0,1,88.45,0Z" transform="translate(40.73 34.86)"/><g class="cls-4"><rect class="cls-2" width="171.09" height="164.63"/><g class="cls-5"><rect class="cls-2" x="41.96" y="31.63" width="94.9" height="123.31"/></g></g></g></g></svg>